<svg width="20" height="20" fill="none" xmlns="http://www.w3.org/2000/svg"><path d="M10 0C7.283 0 6.944.013 5.878.06 4.812.11 4.088.278 3.45.525a4.897 4.897 0 00-1.772 1.153A4.88 4.88 0 00.525 3.45C.278 4.088.109 4.812.06 5.878.01 6.944 0 7.283 0 10c0 2.717.013 3.056.06 4.123.05 1.064.218 1.79.465 2.427a4.904 4.904 0 001.153 1.772 4.89 4.89 0 001.772 1.153c.638.247 1.363.416 2.428.465 1.066.05 1.405.06 4.122.06 2.717 0 3.056-.012 4.123-.06 1.064-.05 1.79-.218 2.427-.465a4.915 4.915 0 001.772-1.153c.509-.5.902-1.104 1.153-1.772.247-.638.416-1.363.465-2.428.05-1.066.06-1.405.06-4.122 0-2.717-.012-3.056-.06-4.122-.05-1.065-.218-1.791-.465-2.428a4.91 4.91 0 00-1.153-1.772A4.874 4.874 0 0016.55.525C15.912.278 15.187.109 14.122.06 13.056.01 12.718 0 10 0zm0 1.8c2.67 0 2.988.013 4.042.06.975.045 1.504.207 1.856.345.468.18.8.397 1.151.747.35.35.566.682.747 1.15.137.352.3.881.344 1.856.047 1.055.058 1.372.058 4.042s-.012 2.988-.061 4.042c-.051.975-.214 1.504-.351 1.856a3.173 3.173 0 01-.75 1.151 3.121 3.121 0 01-1.15.747c-.35.137-.887.3-1.862.344-1.061.047-1.374.058-4.049.058-2.676 0-2.988-.012-4.05-.061-.975-.051-1.513-.214-1.862-.351a3.096 3.096 0 01-1.15-.75 3.038 3.038 0 01-.75-1.15c-.137-.35-.299-.887-.35-1.862-.037-1.05-.05-1.374-.05-4.036 0-2.664.013-2.989.05-4.051.051-.975.213-1.512.35-1.862.175-.475.4-.8.75-1.15.35-.35.675-.575 1.15-.75.35-.137.875-.3 1.85-.35 1.063-.037 1.375-.05 4.05-.05L10 1.8zm0 3.065a5.135 5.135 0 100 10.27 5.135 5.135 0 000-10.27zm0 8.468A3.332 3.332 0 1113.333 10 3.332 3.332 0 0110 13.333zm6.538-8.67a1.2 1.2 0 01-2.4 0 1.2 1.2 0 012.4 0z" fill="#FF6262"/></svg>