<svg width="20" height="14" fill="none" xmlns="http://www.w3.org/2000/svg"><g clip-path="url(#clip0_2:359)"><path d="M19.558 2.184A2.5 2.5 0 0017.788.42C16.236 0 9.99 0 9.99 0s-6.247.013-7.8.434A2.517 2.517 0 00.42 2.196c-.469 2.746-.65 6.93.014 9.565a2.5 2.5 0 001.77 1.762c1.552.421 7.798.421 7.798.421s6.247 0 7.799-.421a2.517 2.517 0 001.77-1.762c.495-2.75.648-6.93-.013-9.577z" fill="red"/><path d="M8.002 9.96l5.182-2.988-5.182-2.988V9.96z" fill="#fff"/></g><defs><clipPath id="clip0_2:359"><path fill="#fff" d="M0 0h20v14H0z"/></clipPath></defs></svg>