<svg width="70" height="70" fill="none" xmlns="http://www.w3.org/2000/svg"><circle cx="35" cy="35" r="35" fill="#C2D8FE"/><path d="M54.301 27.288l-3.307-3.308 2.486-2.486a1.17 1.17 0 000-1.657l-3.329-3.329c-.44-.44-1.218-.44-1.657 0l-2.486 2.487-3.308-3.309a2.344 2.344 0 00-3.314 3.315l11.6 11.601a2.344 2.344 0 003.315-3.314zM30.614 50.999l-11.6-11.601a2.344 2.344 0 00-3.315 3.314l3.308 3.309-2.482 2.48a1.171 1.171 0 000 1.657l3.33 3.328a1.167 1.167 0 001.657 0l2.48-2.48 3.308 3.307A2.344 2.344 0 0030.614 51zm5.457-22.054l-7.114 7.138 4.971 4.972 7.115-7.139-4.972-4.971zm14.916 4.971L36.072 19.002a2.344 2.344 0 00-3.315 3.314l14.916 14.916a2.344 2.344 0 003.314-3.315zM37.243 47.684L22.328 32.77a2.344 2.344 0 00-3.315 3.314L33.93 51a2.344 2.344 0 003.314-3.315z" fill="#4472E8"/></svg>