<svg width="70" height="70" fill="none" xmlns="http://www.w3.org/2000/svg"><circle cx="35" cy="35" r="35" fill="#C2D8FE"/><path d="M31.25 15h7.5a3.75 3.75 0 013.538 2.5h3.962A3.75 3.75 0 0150 21.25v30A3.75 3.75 0 0146.25 55h-22.5A3.75 3.75 0 0120 51.25v-30a3.75 3.75 0 013.75-3.75h3.962A3.75 3.75 0 0131.25 15zM30 18.75A1.25 1.25 0 0031.25 20h7.5a1.25 1.25 0 000-2.5h-7.5A1.25 1.25 0 0030 18.75zm11.875 14.375a1.875 1.875 0 100-3.75 1.875 1.875 0 000 3.75zm0 7.5a1.875 1.875 0 100-3.75 1.875 1.875 0 000 3.75zM40 46.25a1.875 1.875 0 103.75 0 1.875 1.875 0 00-3.75 0zm-2.5-15A1.25 1.25 0 0036.25 30H27.5a1.25 1.25 0 000 2.5h8.75a1.25 1.25 0 001.25-1.25zm0 7.5a1.25 1.25 0 00-1.25-1.25H27.5a1.25 1.25 0 000 2.5h8.75a1.25 1.25 0 001.25-1.25zm0 7.5A1.25 1.25 0 0036.25 45H27.5a1.25 1.25 0 000 2.5h8.75a1.25 1.25 0 001.25-1.25z" fill="#4472E8"/></svg>