<svg width="70" height="70" fill="none" xmlns="http://www.w3.org/2000/svg"><circle cx="35" cy="35" r="35" fill="#C2D8FE"/><path d="M25 28.052a2.581 2.581 0 002.578-2.578A2.58 2.58 0 0025 22.896a2.581 2.581 0 00-2.578 2.578A2.581 2.581 0 0025 28.052zm0 2.344a4.92 4.92 0 01-1.49-.231l-2.338 1.324v1.563h7.656v-1.563l-2.338-1.324c-.47.15-.97.23-1.49.23zm30 14.531v-3.84H15v3.84h16.25v3.033l-2.379 2.27h-3.285v2.343h18.828V50.23H41.13l-2.379-2.27v-3.033H55z" fill="#4472E8"/><path d="M55 38.742V17.427H15v21.315h40zm-16.388-16.94h12.633v2.344H38.612v-2.344zm0 5h10.133v2.344H38.612v-2.344zm0 5h12.633v2.344H38.612v-2.344zm-4.857-10h2.49v2.344h-2.49v-2.344zm0 5h2.49v2.344h-2.49v-2.344zm0 5h2.49v2.344h-2.49v-2.344zm-14.927-1.68l2.477-1.402a4.9 4.9 0 01-1.227-3.246A4.927 4.927 0 0125 20.552a4.927 4.927 0 014.922 4.922 4.9 4.9 0 01-1.227 3.246l2.477 1.402v5.274H18.828v-5.274z" fill="#4472E8"/></svg>