<svg width="156" height="25" fill="none" xmlns="http://www.w3.org/2000/svg"><path d="M7.728 18.168c-1.968 0-3.584-.464-4.848-1.392-1.264-.944-1.944-2.288-2.04-4.032h5.016c.048.592.224 1.024.528 1.296.304.272.696.408 1.176.408.432 0 .784-.104 1.056-.312.288-.224.432-.528.432-.912 0-.496-.232-.88-.696-1.152-.464-.272-1.216-.576-2.256-.912-1.104-.368-2-.72-2.688-1.056-.672-.352-1.264-.856-1.776-1.512C1.136 7.92.888 7.048.888 5.976c0-1.088.272-2.016.816-2.784C2.248 2.408 3 1.816 3.96 1.416c.96-.4 2.048-.6 3.264-.6 1.968 0 3.536.464 4.704 1.392 1.184.912 1.816 2.2 1.896 3.864H8.712c-.016-.512-.176-.896-.48-1.152-.288-.256-.664-.384-1.128-.384-.352 0-.64.104-.864.312-.224.208-.336.504-.336.888 0 .32.12.6.36.84.256.224.568.424.936.6.368.16.912.368 1.632.624 1.072.368 1.952.736 2.64 1.104a5.093 5.093 0 011.8 1.512c.512.64.768 1.456.768 2.448 0 1.008-.256 1.912-.768 2.712-.496.8-1.224 1.432-2.184 1.896-.944.464-2.064.696-3.36.696zm16.443-4.176V18h-2.04c-3.44 0-5.16-1.704-5.16-5.112v-4.44h-1.656V4.536h1.656V1.272h4.728v3.264h2.448v3.912h-2.448v4.512c0 .368.08.632.24.792.176.16.464.24.864.24h1.368zm1.39-2.736c0-1.392.247-2.608.743-3.648.512-1.04 1.2-1.84 2.064-2.4.88-.56 1.856-.84 2.928-.84.928 0 1.728.184 2.4.552a3.995 3.995 0 011.56 1.488V4.536h4.704V18h-4.704v-1.872c-.368.624-.896 1.12-1.584 1.488-.672.368-1.464.552-2.376.552a5.342 5.342 0 01-2.928-.84c-.864-.56-1.552-1.36-2.064-2.4-.496-1.056-.744-2.28-.744-3.672zm9.695 0c0-.864-.24-1.544-.72-2.04a2.27 2.27 0 00-1.728-.744c-.704 0-1.288.248-1.752.744-.464.48-.696 1.16-.696 2.04 0 .864.232 1.552.696 2.064.464.496 1.048.744 1.752.744a2.27 2.27 0 001.728-.744c.48-.496.72-1.184.72-2.064zm21.88-6.72l-8.543 19.872H43.48l3.216-6.984-5.52-12.888h5.232l2.832 7.632 2.736-7.632h5.16zM73.512 1.08V18h-4.704v-6.792h-5.736V18h-4.704V1.08h4.704v6.36h5.736V1.08h4.704zm15.556 10.032c0 .368-.024.736-.072 1.104h-8.904c.048.736.248 1.288.6 1.656.368.352.832.528 1.392.528.784 0 1.344-.352 1.68-1.056h5.016a5.89 5.89 0 01-1.224 2.496c-.592.72-1.344 1.288-2.256 1.704-.912.416-1.92.624-3.024.624-1.328 0-2.512-.28-3.552-.84a6.134 6.134 0 01-2.424-2.4c-.576-1.04-.864-2.264-.864-3.672 0-1.408.288-2.624.864-3.648a5.975 5.975 0 012.4-2.4c1.04-.56 2.232-.84 3.576-.84 1.328 0 2.504.272 3.528.816a5.857 5.857 0 012.4 2.352c.576 1.008.864 2.2.864 3.576zm-4.8-1.176c0-.576-.192-1.024-.576-1.344-.384-.336-.864-.504-1.44-.504s-1.048.16-1.416.48c-.368.304-.608.76-.72 1.368h4.152zm5.957 1.32c0-1.392.248-2.608.744-3.648.512-1.04 1.2-1.84 2.064-2.4.88-.56 1.856-.84 2.928-.84.928 0 1.728.184 2.4.552a3.995 3.995 0 011.56 1.488V4.536h4.704V18H99.92v-1.872c-.368.624-.896 1.12-1.584 1.488-.672.368-1.464.552-2.376.552a5.342 5.342 0 01-2.928-.84c-.864-.56-1.552-1.36-2.064-2.4-.496-1.056-.744-2.28-.744-3.672zm9.696 0c0-.864-.24-1.544-.72-2.04a2.27 2.27 0 00-1.728-.744c-.704 0-1.288.248-1.752.744-.464.48-.696 1.16-.696 2.04 0 .864.232 1.552.696 2.064.464.496 1.048.744 1.752.744a2.27 2.27 0 001.728-.744c.48-.496.72-1.184.72-2.064zM112.01.24V18h-4.704V.24h4.704zm10.623 13.752V18h-2.04c-3.44 0-5.16-1.704-5.16-5.112v-4.44h-1.656V4.536h1.656V1.272h4.728v3.264h2.448v3.912h-2.448v4.512c0 .368.08.632.24.792.176.16.464.24.864.24h1.368zm11.013-9.576c1.536 0 2.752.52 3.648 1.56.912 1.024 1.368 2.416 1.368 4.176V18h-4.704v-7.224c0-.768-.2-1.368-.6-1.8-.4-.448-.936-.672-1.608-.672-.704 0-1.256.224-1.656.672-.4.432-.6 1.032-.6 1.8V18h-4.704V.24h4.704v6.216a4.54 4.54 0 011.68-1.464c.72-.384 1.544-.576 2.472-.576zm22.093.12l-8.544 19.872h-5.112l3.216-6.984-5.52-12.888h5.232l2.832 7.632 2.736-7.632h5.16z" fill="#161D2F"/></svg>